<svg id="visual" viewBox="0 0 900 900" width="900" height="900" xmlns="http://www.w3.org/2000/svg" xmlns:xlink="http://www.w3.org/1999/xlink" version="1.1"><g stroke-width="1" stroke-linejoin="bevel"><path d="M462 471L438 528L483 570Z" fill="#dcecf7" stroke="#dcecf7"></path><path d="M597 514L507 422L462 471Z" fill="#eef7fb" stroke="#eef7fb"></path><path d="M483 570L597 514L462 471Z" fill="#e2f0f8" stroke="#e2f0f8"></path><path d="M438 528L415 594L483 570Z" fill="#e5f1f9" stroke="#e5f1f9"></path><path d="M597 707L602 591L483 570Z" fill="#dfeef8" stroke="#dfeef8"></path><path d="M483 570L602 591L597 514Z" fill="#f1f8fc" stroke="#f1f8fc"></path><path d="M696 482L620 423L597 514Z" fill="#eef7fb" stroke="#eef7fb"></path><path d="M597 514L620 423L507 422Z" fill="#f1f8fc" stroke="#f1f8fc"></path><path d="M406 373L334 470L462 471Z" fill="#e2f0f8" stroke="#e2f0f8"></path><path d="M462 471L334 470L438 528Z" fill="#e5f1f9" stroke="#e5f1f9"></path><path d="M438 528L319 570L415 594Z" fill="#fbfdfe" stroke="#fbfdfe"></path><path d="M427 335L406 373L507 422Z" fill="#dfeef8" stroke="#dfeef8"></path><path d="M507 422L406 373L462 471Z" fill="#e2f0f8" stroke="#e2f0f8"></path><path d="M334 470L319 570L438 528Z" fill="#dcecf7" stroke="#dcecf7"></path><path d="M495 264L427 335L507 422Z" fill="#dcecf7" stroke="#dcecf7"></path><path d="M406 373L311 431L334 470Z" fill="#eef7fb" stroke="#eef7fb"></path><path d="M233 394L311 431L277 304Z" fill="#e5f1f9" stroke="#e5f1f9"></path><path d="M334 470L207 478L319 570Z" fill="#ebf5fa" stroke="#ebf5fa"></path><path d="M597 707L662 621L602 591Z" fill="#ebf5fa" stroke="#ebf5fa"></path><path d="M602 591L662 621L597 514Z" fill="#dcecf7" stroke="#dcecf7"></path><path d="M662 621L696 482L597 514Z" fill="#dfeef8" stroke="#dfeef8"></path><path d="M281 663L428 724L415 594Z" fill="#fbfdfe" stroke="#fbfdfe"></path><path d="M415 594L428 724L483 570Z" fill="#f1f8fc" stroke="#f1f8fc"></path><path d="M516 737L597 707L483 570Z" fill="#e8f3f9" stroke="#e8f3f9"></path><path d="M428 724L516 737L483 570Z" fill="#f1f8fc" stroke="#f1f8fc"></path><path d="M694 298L566 282L620 423Z" fill="#f5fafc" stroke="#f5fafc"></path><path d="M620 423L566 282L507 422Z" fill="#f8fbfd" stroke="#f8fbfd"></path><path d="M566 282L495 264L507 422Z" fill="#ebf5fa" stroke="#ebf5fa"></path><path d="M277 304L311 431L406 373Z" fill="#dcecf7" stroke="#dcecf7"></path><path d="M319 570L281 663L415 594Z" fill="#f8fbfd" stroke="#f8fbfd"></path><path d="M178 587L281 663L319 570Z" fill="#e5f1f9" stroke="#e5f1f9"></path><path d="M696 482L705 368L620 423Z" fill="#f8fbfd" stroke="#f8fbfd"></path><path d="M277 304L406 373L427 335Z" fill="#dfeef8" stroke="#dfeef8"></path><path d="M311 431L207 478L334 470Z" fill="#fbfdfe" stroke="#fbfdfe"></path><path d="M233 394L207 478L311 431Z" fill="#e5f1f9" stroke="#e5f1f9"></path><path d="M705 368L694 298L620 423Z" fill="#dcecf7" stroke="#dcecf7"></path><path d="M524 137L461 197L495 264Z" fill="#f5fafc" stroke="#f5fafc"></path><path d="M714 828L732 694L597 707Z" fill="#e2f0f8" stroke="#e2f0f8"></path><path d="M597 707L732 694L662 621Z" fill="#e8f3f9" stroke="#e8f3f9"></path><path d="M810 578L813 503L696 482Z" fill="#e5f1f9" stroke="#e5f1f9"></path><path d="M696 482L813 503L705 368Z" fill="#e5f1f9" stroke="#e5f1f9"></path><path d="M309 222L277 304L427 335Z" fill="#f1f8fc" stroke="#f1f8fc"></path><path d="M428 724L486 828L516 737Z" fill="#f5fafc" stroke="#f5fafc"></path><path d="M516 737L592 819L597 707Z" fill="#dfeef8" stroke="#dfeef8"></path><path d="M372 812L486 828L428 724Z" fill="#e8f3f9" stroke="#e8f3f9"></path><path d="M290 771L372 812L428 724Z" fill="#f5fafc" stroke="#f5fafc"></path><path d="M486 828L592 819L516 737Z" fill="#f8fbfd" stroke="#f8fbfd"></path><path d="M207 478L178 587L319 570Z" fill="#f8fbfd" stroke="#f8fbfd"></path><path d="M281 663L290 771L428 724Z" fill="#dfeef8" stroke="#dfeef8"></path><path d="M524 137L495 264L566 282Z" fill="#dcecf7" stroke="#dcecf7"></path><path d="M495 264L461 197L427 335Z" fill="#e2f0f8" stroke="#e2f0f8"></path><path d="M810 578L696 482L662 621Z" fill="#e5f1f9" stroke="#e5f1f9"></path><path d="M705 368L831 326L694 298Z" fill="#e5f1f9" stroke="#e5f1f9"></path><path d="M162 684L290 771L281 663Z" fill="#f5fafc" stroke="#f5fafc"></path><path d="M732 694L810 578L662 621Z" fill="#ebf5fa" stroke="#ebf5fa"></path><path d="M309 222L238 304L277 304Z" fill="#fbfdfe" stroke="#fbfdfe"></path><path d="M277 304L238 304L233 394Z" fill="#fbfdfe" stroke="#fbfdfe"></path><path d="M77 419L79 518L207 478Z" fill="#e8f3f9" stroke="#e8f3f9"></path><path d="M207 478L79 518L178 587Z" fill="#dcecf7" stroke="#dcecf7"></path><path d="M365 175L309 222L427 335Z" fill="#ebf5fa" stroke="#ebf5fa"></path><path d="M461 197L365 175L427 335Z" fill="#eef7fb" stroke="#eef7fb"></path><path d="M178 587L162 684L281 663Z" fill="#e2f0f8" stroke="#e2f0f8"></path><path d="M900 484L836 377L813 503Z" fill="#dfeef8" stroke="#dfeef8"></path><path d="M813 503L836 377L705 368Z" fill="#e2f0f8" stroke="#e2f0f8"></path><path d="M727 164L614 160L694 298Z" fill="#fbfdfe" stroke="#fbfdfe"></path><path d="M694 298L614 160L566 282Z" fill="#e5f1f9" stroke="#e5f1f9"></path><path d="M461 197L437 60L365 175Z" fill="#fbfdfe" stroke="#fbfdfe"></path><path d="M614 160L524 137L566 282Z" fill="#eef7fb" stroke="#eef7fb"></path><path d="M772 822L803 737L732 694Z" fill="#f1f8fc" stroke="#f1f8fc"></path><path d="M732 694L803 737L810 578Z" fill="#f8fbfd" stroke="#f8fbfd"></path><path d="M810 578L900 484L813 503Z" fill="#fbfdfe" stroke="#fbfdfe"></path><path d="M679 900L714 828L592 819Z" fill="#f8fbfd" stroke="#f8fbfd"></path><path d="M592 819L714 828L597 707Z" fill="#dcecf7" stroke="#dcecf7"></path><path d="M406 900L527 900L486 828Z" fill="#e8f3f9" stroke="#e8f3f9"></path><path d="M486 828L527 900L592 819Z" fill="#eef7fb" stroke="#eef7fb"></path><path d="M406 900L486 828L372 812Z" fill="#f5fafc" stroke="#f5fafc"></path><path d="M836 377L831 326L705 368Z" fill="#f8fbfd" stroke="#f8fbfd"></path><path d="M299 900L406 900L372 812Z" fill="#ebf5fa" stroke="#ebf5fa"></path><path d="M299 900L372 812L290 771Z" fill="#dfeef8" stroke="#dfeef8"></path><path d="M527 900L619 900L592 819Z" fill="#dcecf7" stroke="#dcecf7"></path><path d="M162 684L206 811L290 771Z" fill="#f1f8fc" stroke="#f1f8fc"></path><path d="M900 629L900 484L810 578Z" fill="#f8fbfd" stroke="#f8fbfd"></path><path d="M836 377L900 375L831 326Z" fill="#f5fafc" stroke="#f5fafc"></path><path d="M178 587L62 616L162 684Z" fill="#e5f1f9" stroke="#e5f1f9"></path><path d="M162 684L107 831L206 811Z" fill="#f5fafc" stroke="#f5fafc"></path><path d="M77 419L207 478L233 394Z" fill="#dfeef8" stroke="#dfeef8"></path><path d="M714 828L772 822L732 694Z" fill="#e8f3f9" stroke="#e8f3f9"></path><path d="M803 737L900 629L810 578Z" fill="#eef7fb" stroke="#eef7fb"></path><path d="M814 900L772 822L714 828Z" fill="#e8f3f9" stroke="#e8f3f9"></path><path d="M900 694L900 629L803 737Z" fill="#f1f8fc" stroke="#f1f8fc"></path><path d="M795 211L727 164L694 298Z" fill="#f1f8fc" stroke="#f1f8fc"></path><path d="M614 160L587 82L524 137Z" fill="#e8f3f9" stroke="#e8f3f9"></path><path d="M96 321L233 394L238 304Z" fill="#dfeef8" stroke="#dfeef8"></path><path d="M96 321L77 419L233 394Z" fill="#f5fafc" stroke="#f5fafc"></path><path d="M619 900L679 900L592 819Z" fill="#fbfdfe" stroke="#fbfdfe"></path><path d="M206 811L299 900L290 771Z" fill="#e2f0f8" stroke="#e2f0f8"></path><path d="M831 326L795 211L694 298Z" fill="#e2f0f8" stroke="#e2f0f8"></path><path d="M900 300L795 211L831 326Z" fill="#f5fafc" stroke="#f5fafc"></path><path d="M900 484L900 375L836 377Z" fill="#fbfdfe" stroke="#fbfdfe"></path><path d="M170 112L163 230L309 222Z" fill="#f5fafc" stroke="#f5fafc"></path><path d="M309 222L163 230L238 304Z" fill="#eef7fb" stroke="#eef7fb"></path><path d="M0 580L62 616L79 518Z" fill="#dfeef8" stroke="#dfeef8"></path><path d="M79 518L62 616L178 587Z" fill="#fbfdfe" stroke="#fbfdfe"></path><path d="M163 230L96 321L238 304Z" fill="#eef7fb" stroke="#eef7fb"></path><path d="M680 85L587 82L614 160Z" fill="#e2f0f8" stroke="#e2f0f8"></path><path d="M437 60L322 98L365 175Z" fill="#dcecf7" stroke="#dcecf7"></path><path d="M365 175L322 98L309 222Z" fill="#eef7fb" stroke="#eef7fb"></path><path d="M900 837L900 694L803 737Z" fill="#dcecf7" stroke="#dcecf7"></path><path d="M437 60L461 197L524 137Z" fill="#e8f3f9" stroke="#e8f3f9"></path><path d="M472 0L437 60L524 137Z" fill="#fbfdfe" stroke="#fbfdfe"></path><path d="M900 375L900 300L831 326Z" fill="#eef7fb" stroke="#eef7fb"></path><path d="M62 616L69 719L162 684Z" fill="#dfeef8" stroke="#dfeef8"></path><path d="M206 811L200 900L299 900Z" fill="#eef7fb" stroke="#eef7fb"></path><path d="M771 90L680 85L727 164Z" fill="#ebf5fa" stroke="#ebf5fa"></path><path d="M727 164L680 85L614 160Z" fill="#eef7fb" stroke="#eef7fb"></path><path d="M587 82L472 0L524 137Z" fill="#e5f1f9" stroke="#e5f1f9"></path><path d="M771 90L727 164L795 211Z" fill="#fbfdfe" stroke="#fbfdfe"></path><path d="M107 831L200 900L206 811Z" fill="#f5fafc" stroke="#f5fafc"></path><path d="M0 394L0 499L77 419Z" fill="#dfeef8" stroke="#dfeef8"></path><path d="M77 419L0 499L79 518Z" fill="#f1f8fc" stroke="#f1f8fc"></path><path d="M62 616L0 665L69 719Z" fill="#e2f0f8" stroke="#e2f0f8"></path><path d="M170 112L112 200L163 230Z" fill="#e2f0f8" stroke="#e2f0f8"></path><path d="M163 230L112 200L96 321Z" fill="#eef7fb" stroke="#eef7fb"></path><path d="M96 321L0 394L77 419Z" fill="#e8f3f9" stroke="#e8f3f9"></path><path d="M0 499L0 580L79 518Z" fill="#ebf5fa" stroke="#ebf5fa"></path><path d="M69 719L107 831L162 684Z" fill="#ebf5fa" stroke="#ebf5fa"></path><path d="M0 820L107 831L69 719Z" fill="#f1f8fc" stroke="#f1f8fc"></path><path d="M679 900L814 900L714 828Z" fill="#dfeef8" stroke="#dfeef8"></path><path d="M772 822L900 837L803 737Z" fill="#f5fafc" stroke="#f5fafc"></path><path d="M0 292L0 394L96 321Z" fill="#e8f3f9" stroke="#e8f3f9"></path><path d="M900 73L771 90L795 211Z" fill="#e8f3f9" stroke="#e8f3f9"></path><path d="M636 0L472 0L587 82Z" fill="#fbfdfe" stroke="#fbfdfe"></path><path d="M900 300L900 211L795 211Z" fill="#dcecf7" stroke="#dcecf7"></path><path d="M0 580L0 665L62 616Z" fill="#f5fafc" stroke="#f5fafc"></path><path d="M322 98L170 112L309 222Z" fill="#eef7fb" stroke="#eef7fb"></path><path d="M230 0L170 112L322 98Z" fill="#f8fbfd" stroke="#f8fbfd"></path><path d="M636 0L587 82L680 85Z" fill="#e5f1f9" stroke="#e5f1f9"></path><path d="M437 60L412 0L322 98Z" fill="#dcecf7" stroke="#dcecf7"></path><path d="M814 900L900 837L772 822Z" fill="#f1f8fc" stroke="#f1f8fc"></path><path d="M472 0L412 0L437 60Z" fill="#dfeef8" stroke="#dfeef8"></path><path d="M728 0L636 0L680 85Z" fill="#e2f0f8" stroke="#e2f0f8"></path><path d="M0 900L115 900L107 831Z" fill="#dfeef8" stroke="#dfeef8"></path><path d="M107 831L115 900L200 900Z" fill="#f5fafc" stroke="#f5fafc"></path><path d="M104 0L125 120L170 112Z" fill="#e5f1f9" stroke="#e5f1f9"></path><path d="M170 112L125 120L112 200Z" fill="#f1f8fc" stroke="#f1f8fc"></path><path d="M0 238L0 292L96 321Z" fill="#dcecf7" stroke="#dcecf7"></path><path d="M0 238L96 321L112 200Z" fill="#eef7fb" stroke="#eef7fb"></path><path d="M814 900L900 900L900 837Z" fill="#e2f0f8" stroke="#e2f0f8"></path><path d="M412 0L267 0L322 98Z" fill="#fbfdfe" stroke="#fbfdfe"></path><path d="M0 104L0 238L112 200Z" fill="#f1f8fc" stroke="#f1f8fc"></path><path d="M828 0L728 0L771 90Z" fill="#ebf5fa" stroke="#ebf5fa"></path><path d="M771 90L728 0L680 85Z" fill="#fbfdfe" stroke="#fbfdfe"></path><path d="M0 665L0 820L69 719Z" fill="#eef7fb" stroke="#eef7fb"></path><path d="M267 0L230 0L322 98Z" fill="#f1f8fc" stroke="#f1f8fc"></path><path d="M125 120L0 104L112 200Z" fill="#ebf5fa" stroke="#ebf5fa"></path><path d="M900 211L900 73L795 211Z" fill="#dcecf7" stroke="#dcecf7"></path><path d="M900 73L828 0L771 90Z" fill="#e2f0f8" stroke="#e2f0f8"></path><path d="M0 820L0 900L107 831Z" fill="#dfeef8" stroke="#dfeef8"></path><path d="M104 0L0 104L125 120Z" fill="#eef7fb" stroke="#eef7fb"></path><path d="M230 0L104 0L170 112Z" fill="#eef7fb" stroke="#eef7fb"></path><path d="M900 73L900 0L828 0Z" fill="#dfeef8" stroke="#dfeef8"></path><path d="M104 0L0 0L0 104Z" fill="#e5f1f9" stroke="#e5f1f9"></path></g></svg>