<svg id="visual" viewBox="0 0 1400 900" width="1400" height="900" xmlns="http://www.w3.org/2000/svg" xmlns:xlink="http://www.w3.org/1999/xlink" version="1.1"><g stroke-width="1" stroke-linejoin="bevel"><path d="M743.8 449L661.2 317L646.2 423Z" fill="#eef7fb" stroke="#eef7fb"></path><path d="M743.8 449L784.8 334L661.2 317Z" fill="#fbfdfe" stroke="#fbfdfe"></path><path d="M656.2 571L759.8 569L743.8 449Z" fill="#eef7fb" stroke="#eef7fb"></path><path d="M962.3 433L908.3 326L784.8 334Z" fill="#dfeef8" stroke="#dfeef8"></path><path d="M646.2 423L656.2 571L743.8 449Z" fill="#dfeef8" stroke="#dfeef8"></path><path d="M962.3 433L784.8 334L743.8 449Z" fill="#e5f1f9" stroke="#e5f1f9"></path><path d="M784.8 334L796.8 153L661.2 317Z" fill="#f8fbfd" stroke="#f8fbfd"></path><path d="M908.3 326L796.8 153L784.8 334Z" fill="#eef7fb" stroke="#eef7fb"></path><path d="M796.8 153L588.2 157L661.2 317Z" fill="#ebf5fa" stroke="#ebf5fa"></path><path d="M435.7 319L442.7 451L646.2 423Z" fill="#f8fbfd" stroke="#f8fbfd"></path><path d="M646.2 423L477.7 595L656.2 571Z" fill="#ebf5fa" stroke="#ebf5fa"></path><path d="M759.8 569L962.3 433L743.8 449Z" fill="#f1f8fc" stroke="#f1f8fc"></path><path d="M435.7 319L646.2 423L661.2 317Z" fill="#e2f0f8" stroke="#e2f0f8"></path><path d="M588.2 157L435.7 319L661.2 317Z" fill="#e8f3f9" stroke="#e8f3f9"></path><path d="M1100.9 313L896.3 150L908.3 326Z" fill="#e8f3f9" stroke="#e8f3f9"></path><path d="M908.3 326L896.3 150L796.8 153Z" fill="#dfeef8" stroke="#dfeef8"></path><path d="M432.7 0L444.7 126L588.2 157Z" fill="#dcecf7" stroke="#dcecf7"></path><path d="M442.7 451L477.7 595L646.2 423Z" fill="#dfeef8" stroke="#dfeef8"></path><path d="M656.2 571L814.8 722L759.8 569Z" fill="#e5f1f9" stroke="#e5f1f9"></path><path d="M967.3 633L1055.9 425L962.3 433Z" fill="#f1f8fc" stroke="#f1f8fc"></path><path d="M962.3 433L1055.9 425L908.3 326Z" fill="#f8fbfd" stroke="#f8fbfd"></path><path d="M618.2 765L814.8 722L656.2 571Z" fill="#f8fbfd" stroke="#f8fbfd"></path><path d="M759.8 569L967.3 633L962.3 433Z" fill="#e5f1f9" stroke="#e5f1f9"></path><path d="M814.8 722L967.3 633L759.8 569Z" fill="#eef7fb" stroke="#eef7fb"></path><path d="M656.2 0L588.2 157L796.8 153Z" fill="#fbfdfe" stroke="#fbfdfe"></path><path d="M588.2 157L444.7 126L435.7 319Z" fill="#fbfdfe" stroke="#fbfdfe"></path><path d="M896.3 150L758.8 0L796.8 153Z" fill="#f5fafc" stroke="#f5fafc"></path><path d="M758.8 0L656.2 0L796.8 153Z" fill="#f1f8fc" stroke="#f1f8fc"></path><path d="M1055.9 425L1100.9 313L908.3 326Z" fill="#fbfdfe" stroke="#fbfdfe"></path><path d="M896.3 150L958.3 0L758.8 0Z" fill="#dfeef8" stroke="#dfeef8"></path><path d="M814.8 722L899.3 728L967.3 633Z" fill="#f1f8fc" stroke="#f1f8fc"></path><path d="M477.7 595L618.2 765L656.2 571Z" fill="#e2f0f8" stroke="#e2f0f8"></path><path d="M814.8 722L809.8 900L899.3 728Z" fill="#dcecf7" stroke="#dcecf7"></path><path d="M336.1 143L282.1 337L435.7 319Z" fill="#fbfdfe" stroke="#fbfdfe"></path><path d="M435.7 319L282.1 337L442.7 451Z" fill="#dcecf7" stroke="#dcecf7"></path><path d="M442.7 451L292.1 594L477.7 595Z" fill="#f8fbfd" stroke="#f8fbfd"></path><path d="M282.1 337L291.1 487L442.7 451Z" fill="#e2f0f8" stroke="#e2f0f8"></path><path d="M477.7 595L429.7 713L618.2 765Z" fill="#dfeef8" stroke="#dfeef8"></path><path d="M292.1 594L429.7 713L477.7 595Z" fill="#eef7fb" stroke="#eef7fb"></path><path d="M444.7 126L336.1 143L435.7 319Z" fill="#f8fbfd" stroke="#f8fbfd"></path><path d="M336.1 0L336.1 143L444.7 126Z" fill="#e5f1f9" stroke="#e5f1f9"></path><path d="M1107.9 137L958.3 0L896.3 150Z" fill="#dcecf7" stroke="#dcecf7"></path><path d="M1100.9 313L1107.9 137L896.3 150Z" fill="#dfeef8" stroke="#dfeef8"></path><path d="M1051.9 750L1120.9 602L967.3 633Z" fill="#e5f1f9" stroke="#e5f1f9"></path><path d="M967.3 633L1120.9 602L1055.9 425Z" fill="#e5f1f9" stroke="#e5f1f9"></path><path d="M1055.9 425L1215.4 428L1100.9 313Z" fill="#e2f0f8" stroke="#e2f0f8"></path><path d="M1100.9 313L1254.4 152L1107.9 137Z" fill="#f5fafc" stroke="#f5fafc"></path><path d="M656.2 0L432.7 0L588.2 157Z" fill="#eef7fb" stroke="#eef7fb"></path><path d="M149.6 591L292.1 594L291.1 487Z" fill="#dcecf7" stroke="#dcecf7"></path><path d="M291.1 487L292.1 594L442.7 451Z" fill="#f5fafc" stroke="#f5fafc"></path><path d="M965.3 900L1051.9 750L899.3 728Z" fill="#fbfdfe" stroke="#fbfdfe"></path><path d="M899.3 728L1051.9 750L967.3 633Z" fill="#e8f3f9" stroke="#e8f3f9"></path><path d="M1254.4 575L1215.4 428L1120.9 602Z" fill="#e2f0f8" stroke="#e2f0f8"></path><path d="M1120.9 602L1215.4 428L1055.9 425Z" fill="#eef7fb" stroke="#eef7fb"></path><path d="M601.2 900L809.8 900L618.2 765Z" fill="#f5fafc" stroke="#f5fafc"></path><path d="M618.2 765L809.8 900L814.8 722Z" fill="#e2f0f8" stroke="#e2f0f8"></path><path d="M432.7 0L336.1 0L444.7 126Z" fill="#e8f3f9" stroke="#e8f3f9"></path><path d="M121.6 179L157.6 322L282.1 337Z" fill="#f1f8fc" stroke="#f1f8fc"></path><path d="M467.7 900L618.2 765L429.7 713Z" fill="#e2f0f8" stroke="#e2f0f8"></path><path d="M467.7 900L601.2 900L618.2 765Z" fill="#f8fbfd" stroke="#f8fbfd"></path><path d="M1215.4 428L1244.4 320L1100.9 313Z" fill="#e2f0f8" stroke="#e2f0f8"></path><path d="M1236.4 0L1107.9 0L1107.9 137Z" fill="#e5f1f9" stroke="#e5f1f9"></path><path d="M1107.9 137L1107.9 0L958.3 0Z" fill="#eef7fb" stroke="#eef7fb"></path><path d="M121.6 179L282.1 337L336.1 143Z" fill="#f8fbfd" stroke="#f8fbfd"></path><path d="M282.1 337L115.6 427L291.1 487Z" fill="#dfeef8" stroke="#dfeef8"></path><path d="M291.1 773L467.7 900L429.7 713Z" fill="#ebf5fa" stroke="#ebf5fa"></path><path d="M292.1 594L291.1 773L429.7 713Z" fill="#e2f0f8" stroke="#e2f0f8"></path><path d="M161.6 717L291.1 773L292.1 594Z" fill="#e8f3f9" stroke="#e8f3f9"></path><path d="M1236.4 787L1254.4 575L1120.9 602Z" fill="#dfeef8" stroke="#dfeef8"></path><path d="M1400 488L1400 269L1244.4 320Z" fill="#eef7fb" stroke="#eef7fb"></path><path d="M809.8 900L965.3 900L899.3 728Z" fill="#e8f3f9" stroke="#e8f3f9"></path><path d="M1051.9 750L1236.4 787L1120.9 602Z" fill="#ebf5fa" stroke="#ebf5fa"></path><path d="M1244.4 320L1254.4 152L1100.9 313Z" fill="#e8f3f9" stroke="#e8f3f9"></path><path d="M1400 269L1254.4 152L1244.4 320Z" fill="#dfeef8" stroke="#dfeef8"></path><path d="M157.6 322L115.6 427L282.1 337Z" fill="#e2f0f8" stroke="#e2f0f8"></path><path d="M115.6 427L149.6 591L291.1 487Z" fill="#dfeef8" stroke="#dfeef8"></path><path d="M121.6 0L121.6 179L336.1 143Z" fill="#f1f8fc" stroke="#f1f8fc"></path><path d="M157.6 322L0 300L115.6 427Z" fill="#e2f0f8" stroke="#e2f0f8"></path><path d="M0 750L161.6 717L149.6 591Z" fill="#e2f0f8" stroke="#e2f0f8"></path><path d="M149.6 591L161.6 717L292.1 594Z" fill="#e2f0f8" stroke="#e2f0f8"></path><path d="M291.1 773L286.1 900L467.7 900Z" fill="#f1f8fc" stroke="#f1f8fc"></path><path d="M1254.4 152L1236.4 0L1107.9 137Z" fill="#dfeef8" stroke="#dfeef8"></path><path d="M965.3 900L1121.9 900L1051.9 750Z" fill="#eef7fb" stroke="#eef7fb"></path><path d="M1121.9 900L1236.4 787L1051.9 750Z" fill="#dcecf7" stroke="#dcecf7"></path><path d="M149.6 900L286.1 900L291.1 773Z" fill="#e5f1f9" stroke="#e5f1f9"></path><path d="M1400 488L1215.4 428L1254.4 575Z" fill="#dfeef8" stroke="#dfeef8"></path><path d="M1400 488L1244.4 320L1215.4 428Z" fill="#f5fafc" stroke="#f5fafc"></path><path d="M1254.4 152L1400 0L1236.4 0Z" fill="#e2f0f8" stroke="#e2f0f8"></path><path d="M1400 607L1400 488L1254.4 575Z" fill="#dfeef8" stroke="#dfeef8"></path><path d="M336.1 0L121.6 0L336.1 143Z" fill="#fbfdfe" stroke="#fbfdfe"></path><path d="M121.6 179L0 300L157.6 322Z" fill="#f5fafc" stroke="#f5fafc"></path><path d="M0 168L0 300L121.6 179Z" fill="#ebf5fa" stroke="#ebf5fa"></path><path d="M115.6 427L0 484L149.6 591Z" fill="#dfeef8" stroke="#dfeef8"></path><path d="M1400 269L1400 181L1254.4 152Z" fill="#dcecf7" stroke="#dcecf7"></path><path d="M0 300L0 484L115.6 427Z" fill="#fbfdfe" stroke="#fbfdfe"></path><path d="M161.6 717L149.6 900L291.1 773Z" fill="#eef7fb" stroke="#eef7fb"></path><path d="M1400 744L1400 607L1254.4 575Z" fill="#e8f3f9" stroke="#e8f3f9"></path><path d="M1121.9 900L1220.4 900L1236.4 787Z" fill="#dfeef8" stroke="#dfeef8"></path><path d="M1236.4 787L1400 744L1254.4 575Z" fill="#f8fbfd" stroke="#f8fbfd"></path><path d="M0 484L0 561L149.6 591Z" fill="#dcecf7" stroke="#dcecf7"></path><path d="M121.6 0L0 168L121.6 179Z" fill="#fbfdfe" stroke="#fbfdfe"></path><path d="M0 750L149.6 900L161.6 717Z" fill="#e2f0f8" stroke="#e2f0f8"></path><path d="M1400 900L1400 744L1236.4 787Z" fill="#f1f8fc" stroke="#f1f8fc"></path><path d="M1400 181L1400 0L1254.4 152Z" fill="#eef7fb" stroke="#eef7fb"></path><path d="M0 561L0 750L149.6 591Z" fill="#fbfdfe" stroke="#fbfdfe"></path><path d="M121.6 0L0 0L0 168Z" fill="#f1f8fc" stroke="#f1f8fc"></path><path d="M1220.4 900L1400 900L1236.4 787Z" fill="#dfeef8" stroke="#dfeef8"></path><path d="M0 750L0 900L149.6 900Z" fill="#fbfdfe" stroke="#fbfdfe"></path></g></svg>